<svg width="44" height="32" viewBox="0 0 44 32" fill="none" xmlns="http://www.w3.org/2000/svg">
<mask id="mask0_54_519" style="mask-type:luminance" maskUnits="userSpaceOnUse" x="0" y="0" width="44" height="32">
<path d="M43.8019 0H0V31.7186H43.8019V0Z" fill="white"/>
</mask>
<g mask="url(#mask0_54_519)">
<path d="M16.0762 31.7186C14.3947 31.7186 12.7672 31.45 11.238 30.9203C9.75212 30.4056 8.35587 29.6432 7.08744 28.6549C4.61312 26.7262 2.63712 23.9303 1.37341 20.5699C0.261516 17.6119 -0.198265 14.4057 0.0786263 11.5411C0.217076 10.1098 0.531726 8.79961 1.01392 7.64637C1.51972 6.43633 2.19779 5.43138 3.02847 4.65953C4.39522 3.38993 6.69806 2.34002 9.87362 1.53937C12.6992 0.827082 16.1556 0.337619 19.8693 0.123456C27.4354 -0.312364 34.8725 0.420444 39.2792 2.03554C42.0434 3.04877 43.5442 4.37358 43.7409 5.9729C43.9926 8.02303 43.4612 10.6297 42.2038 13.5116C40.9456 16.3955 39.0864 19.2617 36.8277 21.7997C34.0458 24.9253 30.8741 27.3703 27.4004 29.0666C23.7969 30.8265 19.9869 31.7186 16.0762 31.7186ZM24.1272 1.1848C22.7337 1.1848 21.3292 1.22464 19.9369 1.3047C12.219 1.74959 6.19777 3.32801 3.83043 5.52762C2.42434 6.83389 1.5091 9.01023 1.25306 11.6555C0.993076 14.343 1.42808 17.3606 2.47783 20.1522C3.66484 23.3087 5.50908 25.9256 7.81192 27.7205C8.97809 28.6292 10.2603 29.3297 11.6235 29.8018C13.0284 30.2885 14.5265 30.535 16.0762 30.535C19.8063 30.535 23.4425 29.6831 26.8836 28.0029C30.2185 26.3748 33.2678 24.0225 35.947 21.012C38.124 18.5659 39.9136 15.8082 41.1226 13.0375C42.2786 10.3887 42.7922 7.93113 42.5692 6.11765C42.4331 5.01055 41.1553 3.98351 38.8733 3.14698C36.7533 2.36999 33.8259 1.78943 30.408 1.46838C28.4002 1.27985 26.2771 1.1848 24.1272 1.1848Z" fill="#3B4864"/>
<path d="M4.38037 24.5328C8.17653 19.9508 19.1854 13.6807 32.8515 25.2563" stroke="#5A5A5A" stroke-dasharray="3 3"/>
</g>
</svg>
