<svg width="32" height="32" viewBox="0 0 32 32" fill="none" xmlns="http://www.w3.org/2000/svg">
<g clipPath="url(#clip0_321_5870)">
<path d="M15.0625 6.15625V8.5H16H16.9375V6.15625V3.8125H16H15.0625V6.15625Z" fill="#0B272B"/>
<path d="M8.45625 5.70625C8.03125 5.91875 7.6875 6.1125 7.6875 6.1375C7.6875 6.25 9.50625 9.8125 9.5625 9.8125C9.61875 9.8125 11.1125 9.0875 11.175 9.03125C11.2188 8.99375 9.3375 5.3125 9.28125 5.31875C9.25 5.31875 8.875 5.49375 8.45625 5.70625Z" fill="#0B272B"/>
<path d="M21.7187 7.12508C21.2187 8.11882 20.8125 8.95632 20.8125 8.98757C20.8125 9.04382 22.4187 9.85007 22.4625 9.81257C22.5125 9.75007 24.3187 6.11258 24.3 6.09383C24.2375 6.03758 22.7437 5.31258 22.6875 5.31258C22.6562 5.31258 22.2187 6.12508 21.7187 7.12508Z" fill="#0B272B"/>
<path d="M1.925 9.44375L1.1875 10.0062L2.59375 11.875L4 13.75L4.75 13.1875L5.5 12.6187L4.09375 10.75C3.31875 9.71875 2.68125 8.875 2.66875 8.88125C2.6625 8.88125 2.325 9.1375 1.925 9.44375Z" fill="#0B272B"/>
<path d="M27.9062 10.75L26.5 12.6187L27.25 13.1875L28 13.75L29.4062 11.875L30.8125 10.0062L30.0625 9.4375L29.3125 8.875L27.9062 10.75Z" fill="#0B272B"/>
<path d="M14.625 11.375C11.1688 11.7375 7.68755 13.2 4.3563 15.6938C2.9063 16.7813 1.4938 18.0625 0.412549 19.2688L-0.0124512 19.75L0.393799 20.2C2.87505 22.975 6.3438 25.4875 9.4563 26.775C14.3938 28.8188 18.9563 28.625 23.85 26.1688C26.6438 24.7688 29.4625 22.6 31.6063 20.2063L32.0126 19.75L31.5875 19.2688C31.0125 18.625 29.7875 17.4375 29.0938 16.8438C25.6063 13.875 21.7875 12.0063 18.0938 11.4625C17.325 11.35 15.3438 11.3 14.625 11.375ZM17.5 13.3625C20.3875 14.1188 22.375 16.4875 22.5438 19.375C22.65 21.275 21.9375 23.0938 20.5625 24.4375C18.2188 26.7188 14.6438 26.9313 12.0313 24.95C9.3063 22.8875 8.6438 19.0688 10.5 16.2C11.5 14.65 13.2125 13.5375 15.0313 13.25C15.6125 13.1625 16.9563 13.225 17.5 13.3625ZM8.77505 15.4063C8.31255 16.1375 7.85005 17.3563 7.6813 18.3125C7.5688 18.9188 7.5688 20.5813 7.6813 21.1875C7.85005 22.1438 8.31255 23.3625 8.77505 24.0875C8.90005 24.2813 9.00005 24.4563 9.00005 24.4688C9.00005 24.5125 8.3688 24.1875 7.81255 23.8563C6.0813 22.8375 4.4563 21.6063 3.00005 20.2125C2.4563 19.6875 2.41255 19.825 3.4063 18.9125C4.58755 17.8375 5.83755 16.8813 7.1938 16.0188C7.83755 15.6063 8.95005 14.9938 8.98755 15.025C9.00005 15.0375 8.9063 15.2125 8.77505 15.4063ZM24.4875 15.8188C26.1063 16.7938 28.15 18.3875 29.2188 19.5L29.4688 19.7625L28.9188 20.2875C27.8438 21.3125 26.4 22.4563 25.1563 23.2625C24.5 23.6875 23.05 24.5125 23.0188 24.475C23.0063 24.4688 23.1313 24.2375 23.3 23.9625C24.275 22.3375 24.6563 20.0875 24.2875 18.1875C24.1 17.225 23.6813 16.1188 23.225 15.4125C23.1 15.2188 23 15.0438 23 15.0313C23 14.975 23.725 15.3625 24.4875 15.8188Z" fill="#0B272B"/>
<path d="M15.3438 17.025C14.8188 17.1562 14.4251 17.3812 14.0251 17.7812C12.4126 19.3875 13.2938 22.125 15.5563 22.5125C16.7188 22.7125 17.9063 22.125 18.4563 21.075C19.0501 19.9437 18.8626 18.675 17.9688 17.775C17.2688 17.0687 16.2876 16.7875 15.3438 17.025ZM16.4376 18.9375C16.7188 19.0812 16.9376 19.4375 16.9376 19.7562C16.9376 20.2187 16.4626 20.6875 15.9938 20.6875C15.7063 20.6875 15.3188 20.4437 15.1813 20.175C14.9501 19.725 15.0938 19.2312 15.5376 18.9625C15.8376 18.7812 16.1126 18.775 16.4376 18.9375Z" fill="#0B272B"/>
</g>
<defs>
<clipPath id="clip0_321_5870">
<rect width="32" height="32" fill="white"/>
</clipPath>
</defs>
</svg>
