<svg width="683" height="683" viewBox="0 0 683 683" fill="none" xmlns="http://www.w3.org/2000/svg">
<g clip-path="url(#clip0_1_6)">
<path d="M322.133 2.1333C307.333 5.3333 297.6 10.6666 268.933 31.0666C254.133 41.6 239.6 51.8666 236.8 53.8666L231.6 57.3333H175.467C119.733 57.3333 119.333 57.3333 114 60.4C111.067 62.1333 107.467 65.7333 105.733 68.6666C102.8 73.8666 102.667 75.0666 102.667 111.467V148.933L53.0667 184.133C25.7333 203.467 2.66666 220.133 1.73333 221.333C-0.800003 224.533 -0.66667 652 1.86666 659.067C4.93333 667.467 10.4 674.133 17.7333 678.133L24.6667 682H341.333H658L664.933 678.133C672.267 674.133 677.733 667.467 680.8 659.067C683.333 652 683.467 224.533 680.933 221.2C680 220.133 656.933 203.333 629.733 184L580 148.933V111.467C580 75.0666 579.867 73.8666 576.933 68.6666C575.2 65.7333 571.6 62.1333 568.667 60.4C563.333 57.3333 562.933 57.3333 507.2 57.3333H451.067L441.2 50.4C435.733 46.6666 421.333 36.4 409.067 27.7333C396.8 19.0666 382.933 10.1333 378.4 7.99996C361.467 0.399964 340.533 -1.73337 322.133 2.1333ZM363.333 26.6666C367.733 28.1333 373.867 31.0666 376.933 33.0666C387.6 40 407.867 54.6666 408.667 56C409.2 56.9333 385.867 57.3333 341.333 57.3333C299.867 57.3333 273.467 56.8 274 56.1333C274.667 54.8 290.267 43.4666 303.867 34.4C310.533 29.8666 322 25.2 330.667 23.4666C337.333 22.1333 355.467 24 363.333 26.6666ZM557.333 193.733V307.467L477.867 373.467C434.133 409.733 394.8 442.4 390.533 446C378.8 456.133 369.733 461.067 357.333 464.133C333.733 470.133 312.933 464.133 290.933 445.067C287.333 441.867 248.667 409.6 204.8 373.333L125.333 307.467V193.733V80H341.333H557.333V193.733ZM102.4 260L102 288.133L66.9333 258.8C47.6 242.8 31.7333 229.067 31.6 228.533C31.4667 227.867 47.3333 216.133 66.6667 202.4L102 177.333L102.4 204.533C102.533 219.6 102.533 244.533 102.4 260ZM616.933 203.067C635.467 216.133 650.933 227.333 651.333 227.867C651.733 228.667 592.4 279.2 582.4 286.4C580.133 288.133 580 286 580 232.667C580 188.667 580.4 177.333 581.733 178.133C582.533 178.667 598.533 189.867 616.933 203.067ZM151.333 358.667C210.8 408 259.333 448.933 259.333 449.467C259.333 450.267 63.3333 613.867 24.9333 645.2C22.8 646.933 22.6667 634.4 22.6667 449.333V251.733L33.0667 260.4C38.6667 265.067 92 309.333 151.333 358.667ZM659.733 547.867L659.333 646.533L541.333 548.533C476.4 494.533 423.2 450 423.067 449.6C422.933 449.067 476 404.533 541.067 350.533L659.333 252.4L659.733 350.8C659.867 405.067 659.867 493.733 659.733 547.867ZM291.733 474.4C300.933 480.8 317.467 486.667 331.067 488.4C340.8 489.6 344.933 489.467 355.067 487.733C373.733 484.533 384.933 479.467 401.333 466.933L404.667 464.4L521.867 561.867L639.067 659.333L490.267 659.733C408.4 659.867 274.4 659.867 192.533 659.733L43.6 659.333L160.8 561.867L278 464.4L281.733 467.2C283.867 468.8 288.4 472 291.733 474.4Z" fill="#22B95B"/>
<path d="M341.333 124.933C331.733 125.733 315.333 129.333 305.067 132.8C260.267 148 219.333 191.067 206.4 236.667C202.4 250.933 202.133 279.867 205.867 294C214.933 328.267 238.533 356.533 270.133 370.8C292.267 380.8 332.667 387.467 363.333 386.267C407.2 384.4 440 371.6 465.6 346.533C476.4 335.867 477.333 334.533 477.333 329.733C477.333 324.4 474.267 320.133 469.067 318.267C465.067 316.8 459.333 319.867 454.133 326C434.533 349.6 396.267 364 354 364C328.933 363.867 294.4 357.067 277.2 348.667C246.667 333.867 227.733 305.067 225.733 270.533C224.667 253.6 227.6 240.8 236 223.333C249.733 195.2 274.667 170.933 303.2 158C336 143.2 376.533 144.133 403.6 160.267C420 170 434.933 188.8 441.467 208C445.467 219.867 446.533 245.067 443.467 257.333C438.667 276.667 425.6 295.733 413.333 301.2C405.067 304.933 391.733 305.067 388 301.333C384.667 298 384.667 298.4 388.533 282.933C392.533 267.2 406.667 197.467 406.667 193.6C406.667 192 405.2 189.2 403.467 187.2C401.067 184.4 399.2 183.467 395.333 183.467C388.933 183.467 384.533 188.267 383.2 196.667L382.4 202.8L376 196.8C365.867 187.333 351.2 181.333 338.267 181.333C308.933 181.333 274.8 214.8 266 252.267C261.6 271.067 264.533 292.267 273.467 305.733C290.133 330.933 328.8 334.933 356.933 314.133L364.533 308.533L368.667 314C374.8 322.267 385.067 326.8 397.6 326.8C408.933 326.933 416.4 325.2 425.733 320.533C443.2 311.6 458.933 288.8 465.467 262.667C468 252.933 468.267 248.933 467.6 232.8C466.8 211.467 464.8 202.933 457.333 187.333C438.8 149.333 404 127.2 359.333 124.933C352.8 124.667 344.667 124.667 341.333 124.933ZM353.067 207.867C360 211.467 366.267 218.667 371.067 229.2L375.067 237.733L372.267 251.867C368.933 267.867 365.2 274.4 351.467 288.533C338 302.267 322.133 307.733 307.6 303.467C293.733 299.467 286.667 288.4 286.667 270.667C286.667 244.4 308.4 212.267 330.667 205.467C336.933 203.6 346.667 204.667 353.067 207.867Z" fill="#22B95B"/>
</g>
<defs>
<clipPath id="clip0_1_6">
<rect width="682.667" height="682.667" fill="white"/>
</clipPath>
</defs>
</svg>
