<svg width="41" height="41" viewBox="0 0 41 41" fill="none" xmlns="http://www.w3.org/2000/svg">
<path d="M4.5325 0.120117C4.08406 0.280273 3.67566 0.640625 3.44344 1.08906L3.24324 1.47344L3.21922 17.6412C3.21121 28.5959 3.22723 33.9131 3.28328 34.1213C3.41141 34.5938 3.82781 35.0902 4.31629 35.3305L4.75672 35.5547H6.69461H8.64051L8.66453 37.5807C8.68855 39.4705 8.69656 39.6227 8.86473 39.9189C9.06492 40.2953 9.37723 40.5996 9.76961 40.8078C10.0419 40.952 10.4262 40.96 19.1387 40.96H28.2276L28.9323 40.7117C29.3167 40.5676 29.8372 40.3354 30.0854 40.1912C30.5499 39.9109 36.1714 34.6979 36.6679 34.0893C37.0522 33.6088 37.4606 32.7439 37.6448 32.0473C37.7889 31.4627 37.797 31.0383 37.797 19.3068C37.797 11.1869 37.7649 7.0709 37.7169 6.8707C37.5807 6.39824 37.1643 5.90977 36.6839 5.66153L36.2434 5.44531H34.3055H32.3596L32.3356 3.41934C32.3116 1.63359 32.2956 1.36934 32.1595 1.12109C31.9513 0.72871 31.647 0.416409 31.2706 0.216213L30.9503 0.0400391L17.8975 0.024025C6.94285 0.00800705 4.79676 0.024025 4.5325 0.120117ZM30.7581 1.65762C30.8462 1.75371 30.8702 2.17813 30.8702 3.59551V5.40527L20.46 5.44531L10.0499 5.48535L9.72957 5.66153C9.31316 5.88574 9.01687 6.20605 8.81668 6.64648C8.65652 7.00684 8.64852 7.09492 8.64852 20.5641V34.1213L6.82273 34.0973C5.41336 34.0813 4.95691 34.0492 4.86082 33.9611C4.7327 33.865 4.72469 32.6238 4.72469 17.8094C4.72469 3.33926 4.7407 1.76172 4.85281 1.64961C4.96492 1.5375 6.24617 1.52148 17.8095 1.52148C29.653 1.52148 30.662 1.52949 30.7581 1.65762ZM36.0352 6.99082L36.2354 7.09492V19.3389V31.5908L33.0723 31.6309L29.9093 31.6709L29.4608 31.8951C28.9563 32.1354 28.4598 32.6318 28.1716 33.1684C27.9874 33.5047 27.9874 33.5688 27.9473 36.4756L27.9073 39.4385H19.0987H10.2981L10.194 39.2383C10.1139 39.0781 10.0979 35.851 10.1139 23.1186L10.13 7.19102L10.3221 7.03887C10.5063 6.88672 10.8186 6.88672 23.1747 6.88672C33.2245 6.88672 35.8751 6.91074 36.0352 6.99082ZM35.4266 33.2484C35.0903 33.6248 29.5249 38.8379 29.4528 38.8379C29.4128 38.8379 29.3888 37.8529 29.4048 36.3635C29.4288 33.5527 29.4208 33.6088 30.1095 33.2484C30.4538 33.0803 30.5259 33.0723 33.0243 33.0723H35.5788L35.4266 33.2484Z" fill="white"/>
<path d="M15.7034 12.4441C15.263 12.6924 15.1829 13.1648 15.5272 13.5492L15.7595 13.8135H23.2147H30.67L30.8862 13.5973C31.1985 13.277 31.1905 12.8686 30.8462 12.5643L30.5899 12.332H23.2388C17.297 12.34 15.8556 12.3561 15.7034 12.4441Z" fill="white"/>
<path d="M15.6715 17.385C15.5994 17.425 15.4793 17.5771 15.4072 17.7053C15.247 18.0176 15.3191 18.3619 15.5914 18.5781C15.7916 18.7383 15.9037 18.7383 23.1988 18.7383C28.3478 18.7383 30.6461 18.7143 30.7662 18.6502C30.8543 18.6021 30.9744 18.442 31.0385 18.2898C31.1345 18.0576 31.1345 17.9775 31.0385 17.7453C30.9744 17.5932 30.8543 17.433 30.7662 17.385C30.542 17.2648 15.8797 17.2648 15.6715 17.385Z" fill="white"/>
<path d="M15.5912 22.4219C15.4791 22.51 15.367 22.6862 15.3349 22.8143C15.2789 23.0865 15.4551 23.4949 15.6873 23.6231C15.9115 23.7352 30.5418 23.7352 30.766 23.6151C30.9742 23.503 31.1504 23.0785 31.0943 22.7983C31.0703 22.6781 30.9582 22.51 30.8461 22.4219C30.6539 22.2617 30.5017 22.2617 23.2226 22.2617C15.9035 22.2617 15.7914 22.2617 15.5912 22.4219Z" fill="white"/>
<path d="M15.8074 27.2265C15.5832 27.3146 15.2949 27.691 15.2949 27.8832C15.2949 28.1394 15.5191 28.4838 15.7514 28.5799C15.9195 28.6439 17.1047 28.6679 20.1316 28.6519L24.2797 28.6279L24.4719 28.4037C24.7281 28.1074 24.7281 27.707 24.4719 27.4107L24.2797 27.1865L20.1236 27.1705C17.8414 27.1625 15.8955 27.1865 15.8074 27.2265Z" fill="white"/>
</svg>
