<svg width="52" height="22" viewBox="0 0 52 22" fill="none" xmlns="http://www.w3.org/2000/svg">
<g clipPath="url(#clip0_54_511)">
<path d="M52 7.14204H49.9462C49.5941 5.7389 48.8898 4.52794 47.9505 3.44334C46.1899 1.40314 43.6071 0.254477 40.614 0.0631806L12.3252 0C8.92107 0 5.98615 1.21184 4.04945 3.44334C3.11099 4.52794 2.40673 5.7389 2.0538 7.14204H0V8.35387H1.87774C1.76063 9.2463 1.70167 10.1396 1.70167 11.032C1.93669 17.2176 6.63144 22 12.3834 22C14.203 22 15.6115 21.8087 16.785 21.3621C18.4285 20.8522 19.7199 19.5763 20.4241 17.9819C21.1873 16.1962 22.1258 13.2627 22.713 11.1584C23.1822 9.62802 22.948 7.65099 22.0087 5.92932C20.7763 3.5697 18.7216 1.72079 16.3157 0.764309H35.6835C33.3357 1.78485 31.2819 3.50652 29.9905 5.92932C29.0512 7.71505 28.817 9.56396 29.2862 11.1584C29.9315 13.2627 30.8708 16.2602 31.5751 17.9819C32.2793 19.5123 33.5707 20.7241 35.2142 21.3621C36.3877 21.7446 37.8552 22 39.6158 22C45.3678 22 50.0625 17.2176 50.2975 11.032C50.3565 10.0755 50.2975 9.18312 50.1215 8.35387H51.941C52 8.35387 52 7.14204 52 7.14204ZM20.9523 6.6322C21.7155 8.03534 21.9497 9.56571 21.5976 10.7776C21.2455 12.0526 20.1302 15.56 19.3088 17.4729C18.7216 18.6848 17.7242 19.7044 16.4328 20.087C15.3764 20.4056 14.085 20.5969 12.3834 20.5969C7.21859 20.6609 3.11018 16.5156 2.81701 10.968C2.6999 8.35387 3.46231 6.12149 4.92977 4.33577C6.63144 2.35874 9.2732 1.27502 12.3244 1.27502C15.8465 1.27502 19.1917 3.38016 20.9523 6.6322ZM49.242 10.968C49.0069 16.5156 44.9575 20.6609 39.7337 20.6609C38.0321 20.6609 36.7407 20.4696 35.6843 20.1511C34.3929 19.7685 33.3955 18.748 32.8083 17.537C31.987 15.624 30.9306 12.1807 30.5195 10.8416C30.1674 9.62977 30.4024 8.16346 31.1648 6.69626C32.9254 3.44422 36.2706 1.40314 39.7337 1.40314C42.7858 1.40314 45.4267 2.48686 47.1284 4.46388C48.5958 6.05831 49.3001 8.35387 49.242 10.968Z" fill="#3B4864"/>
</g>
<defs>
<clipPath id="clip0_54_511">
<rect width="52" height="22" fill="white"/>
</clipPath>
</defs>
</svg>
