<svg width="14" height="14" viewBox="0 0 14 14" fill="none" xmlns="http://www.w3.org/2000/svg">
<path fill-rule="evenodd" clip-rule="evenodd" d="M8.75 2.625H11.375V3.5H10.5V11.375L9.625 12.25H3.5L2.625 11.375V3.5H1.75V2.625H4.375V1.75C4.375 1.51794 4.46719 1.29538 4.63128 1.13128C4.79538 0.967187 5.01794 0.875 5.25 0.875H7.875C8.10706 0.875 8.32962 0.967187 8.49372 1.13128C8.65781 1.29538 8.75 1.51794 8.75 1.75V2.625ZM7.875 1.75H5.25V2.625H7.875V1.75ZM3.5 11.375H9.625V3.5H3.5V11.375ZM5.25 4.375H4.375V10.5H5.25V4.375ZM6.125 4.375H7V10.5H6.125V4.375ZM7.875 4.375H8.75V10.5H7.875V4.375Z" fill="#F2254A"/>
</svg>
