<svg width="43" height="14" viewBox="0 0 43 14" fill="none" xmlns="http://www.w3.org/2000/svg">
<g clip-path="url(#clip0_57_2025)">
<mask id="mask0_57_2025" style="mask-type:luminance" maskUnits="userSpaceOnUse" x="0" y="0" width="43" height="14">
<path d="M42.5 0H0.5V14H42.5V0Z" fill="white"/>
</mask>
<g mask="url(#mask0_57_2025)">
<path d="M21.4972 5.53072C21.8576 5.53875 22.2089 5.64726 22.513 5.84442C22.817 6.04158 23.0621 6.31984 23.2215 6.64892C23.8768 8.18832 25.5174 13.7442 30.6904 13.9598C35.8338 14.2506 38.1346 13.0522 38.9179 11.6181C39.9366 9.89335 40.6066 7.97887 40.8886 5.98702C40.9654 5.64454 41.1312 5.32936 41.3687 5.07443C41.6062 4.8195 41.9066 4.6342 42.2385 4.53789C42.3039 4.51755 42.3616 4.47734 42.4039 4.42266C42.4461 4.36799 42.471 4.30146 42.475 4.23201C42.5246 3.22978 42.5246 2.22564 42.475 1.22341C42.4747 1.10109 42.4304 0.9831 42.3506 0.89167C42.2707 0.800241 42.1608 0.741679 42.0415 0.727C40.3713 0.436169 33.7597 -0.586748 29.4291 0.451218C27.0791 1.00781 24.6503 2.12599 23.5171 2.25636C22.1628 2.40334 20.797 2.40334 19.4428 2.25636C18.3195 2.12599 15.8906 1.00781 13.5307 0.451218C9.20017 -0.586748 2.58363 0.451212 0.918412 0.727C0.805959 0.745469 0.703267 0.803028 0.627814 0.88988C0.552362 0.976731 0.508813 1.08751 0.504572 1.20337C0.452903 2.20554 0.452903 3.20979 0.504572 4.21196C0.508266 4.28079 0.532365 4.34686 0.573703 4.40147C0.615041 4.45608 0.671676 4.49664 0.736127 4.51783C1.0683 4.61365 1.36898 4.79881 1.60652 5.05382C1.84407 5.30882 2.00971 5.62427 2.08603 5.96698C2.36815 7.95879 3.03813 9.87323 4.05671 11.5981C4.84005 13.0322 7.13589 14.2306 12.2793 13.9398C17.4524 13.7241 19.0979 8.16826 19.7482 6.62886C19.9123 6.29978 20.1623 6.02314 20.4709 5.82939C20.7795 5.63564 21.1346 5.53229 21.4972 5.53072ZM37.3808 11.7585C36.09 13.1926 30.449 13.4734 28.3157 12.2951C25.1232 10.3595 24.2413 5.59591 25.0838 4.06152C26.5322 1.95049 32.6808 1.44906 32.6808 1.44906C33.8237 1.31869 38.2528 1.11311 38.9574 3.36454C39.9378 7.00996 38.6765 10.3345 37.3808 11.7585ZM4.037 3.36454C4.74151 1.11311 9.17062 1.31869 10.3136 1.44906C10.3136 1.44906 16.467 1.95049 17.9155 4.06152C18.7579 5.59591 17.8761 10.3595 14.6836 12.2951C12.5503 13.4734 6.90926 13.1926 5.61354 11.7585C4.31782 10.3244 3.05659 7.00996 4.037 3.37958V3.36454ZM41.1694 3.22414C41.0673 3.22315 40.9678 3.19142 40.8834 3.13297C40.799 3.07452 40.7334 2.99196 40.695 2.89567C40.6566 2.79938 40.6471 2.69367 40.6676 2.59187C40.6881 2.49007 40.7378 2.39673 40.8103 2.3236C40.8829 2.25047 40.975 2.20082 41.0753 2.18091C41.1755 2.16099 41.2792 2.1717 41.3735 2.2117C41.4677 2.25169 41.5482 2.31918 41.6048 2.40565C41.6614 2.49213 41.6917 2.59371 41.6917 2.69763C41.6967 2.76898 41.6867 2.84061 41.6623 2.9077C41.638 2.97479 41.5998 3.0358 41.5503 3.08662C41.5008 3.13744 41.4412 3.17688 41.3755 3.20233C41.3099 3.22778 41.2396 3.23864 41.1694 3.23416V3.22414ZM1.30762 2.73273C1.30762 2.6286 1.33796 2.52681 1.3948 2.44022C1.45164 2.35364 1.53243 2.28616 1.62695 2.24631C1.72148 2.20646 1.8255 2.19603 1.92585 2.21635C2.0262 2.23666 2.11836 2.2868 2.19071 2.36044C2.26305 2.43407 2.31232 2.52789 2.33228 2.63002C2.35224 2.73215 2.34201 2.83801 2.30285 2.93422C2.2637 3.03043 2.19739 3.11265 2.11232 3.17051C2.02725 3.22836 1.92723 3.25923 1.82492 3.25923C1.75605 3.26283 1.68721 3.25168 1.62285 3.2265C1.55848 3.20131 1.50003 3.16266 1.45127 3.11303C1.40251 3.0634 1.36453 3.00391 1.33978 2.9384C1.31504 2.87289 1.30409 2.80282 1.30762 2.73273Z" fill="#566079"/>
</g>
</g>
<defs>
<clipPath id="clip0_57_2025">
<rect width="42" height="14" fill="white" transform="translate(0.5)"/>
</clipPath>
</defs>
</svg>
