<svg width="392" height="89" viewBox="0 0 392 89" fill="none" xmlns="http://www.w3.org/2000/svg">
<rect width="391.474" height="88.37" rx="12" fill="#1A535C"/>
<rect x="0.5" y="0.5" width="390.474" height="87.37" rx="11.5" stroke="black" stroke-opacity="0.2"/>
<path d="M68.2141 39.0932H66.1208V38.9853H42.732V49.3803H57.4189C55.2762 55.4315 49.5187 59.7753 42.732 59.7753C34.1211 59.7753 27.1395 52.7938 27.1395 44.1828C27.1395 35.5719 34.1211 28.5903 42.732 28.5903C46.7068 28.5903 50.323 30.0898 53.0763 32.5391L60.4269 25.1886C55.7855 20.8629 49.5771 18.1953 42.732 18.1953C28.3804 18.1953 16.7445 29.8312 16.7445 44.1828C16.7445 58.5344 28.3804 70.1703 42.732 70.1703C57.0836 70.1703 68.7195 58.5344 68.7195 44.1828C68.7195 42.4404 68.5402 40.7395 68.2141 39.0932Z" fill="white"/>
<path d="M19.7407 32.0869L28.2789 38.3486C30.5892 32.6288 36.1843 28.5903 42.7319 28.5903C46.7067 28.5903 50.3228 30.0898 53.0762 32.5391L60.4268 25.1886C55.7854 20.8629 49.577 18.1953 42.7319 18.1953C32.7501 18.1953 24.0936 23.8307 19.7407 32.0869Z" fill="#E3E3E3"/>
<path d="M42.7322 70.173C49.4448 70.173 55.544 67.6041 60.1555 63.4266L52.1124 56.6205C49.4156 58.6714 46.1202 59.7806 42.7322 59.778C35.9728 59.778 30.2335 55.4679 28.0713 49.4531L19.5968 55.9825C23.8977 64.3985 32.6321 70.173 42.7322 70.173Z" fill="#B0B0B0"/>
<path d="M68.2141 39.0952H66.1208V38.9873H42.7321V49.3823H57.4189C56.394 52.2623 54.5477 54.7788 52.1083 56.6211L52.1122 56.6185L60.1554 63.4247C59.5863 63.9418 68.7196 57.1786 68.7196 44.1848C68.7196 42.4423 68.5403 40.7415 68.2141 39.0952Z" fill="#E3E3E3"/>
<path d="M101.649 56.6846V50.0704L101.858 49.3742V35.0668L103.599 35.8327L93.2947 49.6527L91.3105 48.0166H108.995V51.6021H89.361V48.1558L101.789 31.6205H106.279V56.6846H101.649ZM110.979 56.6846V51.6718H116.027V56.6846H110.979ZM126.869 57.0327C125.175 57.0327 123.713 56.7194 122.483 56.0928C121.253 55.4662 120.278 54.5727 119.559 53.4123C118.839 52.2519 118.375 50.8827 118.166 49.3046H122.762C122.901 50.7203 123.33 51.7646 124.05 52.4376C124.769 53.1106 125.755 53.4471 127.009 53.4471C127.89 53.4471 128.645 53.2731 129.271 52.925C129.898 52.5536 130.408 51.9967 130.803 51.254C131.197 50.4882 131.476 49.5019 131.638 48.2951C131.824 47.0883 131.917 45.6378 131.917 43.9437V41.681L133.135 41.7506C132.903 42.8413 132.451 43.7928 131.778 44.6051C131.105 45.4174 130.258 46.0556 129.236 46.5197C128.215 46.9607 127.078 47.1811 125.825 47.1811C124.247 47.1811 122.854 46.8446 121.648 46.1716C120.464 45.4986 119.524 44.5703 118.828 43.3867C118.155 42.2031 117.818 40.8455 117.818 39.3138C117.818 37.6893 118.201 36.2852 118.967 35.1016C119.733 33.8949 120.801 32.955 122.17 32.2819C123.539 31.6089 125.129 31.2724 126.939 31.2724C130.165 31.2724 132.625 32.3516 134.319 34.5099C136.036 36.6449 136.895 39.7663 136.895 43.8741C136.895 46.6357 136.5 49.0029 135.711 50.9755C134.945 52.925 133.808 54.4218 132.3 55.4662C130.815 56.5105 129.004 57.0327 126.869 57.0327ZM127.252 43.6652C128.645 43.6652 129.735 43.2823 130.524 42.5164C131.313 41.7506 131.708 40.7295 131.708 39.453C131.708 38.5712 131.522 37.7821 131.151 37.0859C130.803 36.3897 130.292 35.8443 129.619 35.4498C128.946 35.0552 128.146 34.858 127.217 34.858C125.848 34.858 124.769 35.2757 123.98 36.1112C123.191 36.9234 122.796 37.9794 122.796 39.279C122.796 40.5554 123.179 41.6113 123.945 42.4468C124.734 43.2591 125.837 43.6652 127.252 43.6652Z" fill="white"/>
<path d="M174.671 53.5157L185.614 60.1207L182.71 47.672L192.379 39.2962L179.647 38.216L174.671 26.4756L169.695 38.216L156.963 39.2962L166.631 47.672L163.727 60.1207L174.671 53.5157Z" fill="#FFC107"/>
<path d="M218.94 53.5157L229.884 60.1207L226.98 47.672L236.648 39.2962L223.916 38.216L218.94 26.4756L213.964 38.216L201.232 39.2962L210.901 47.672L207.997 60.1207L218.94 53.5157Z" fill="#FFC107"/>
<path d="M263.211 53.5157L274.155 60.1207L271.251 47.672L280.919 39.2962L268.187 38.216L263.211 26.4756L258.235 38.216L245.503 39.2962L255.172 47.672L252.268 60.1207L263.211 53.5157Z" fill="#FFC107"/>
<path d="M307.479 53.5157L318.423 60.1207L315.519 47.672L325.187 39.2962L312.455 38.216L307.479 26.4756L302.504 38.216L289.771 39.2962L299.44 47.672L296.536 60.1207L307.479 53.5157Z" fill="#FFC107"/>
<path d="M351.75 53.5157L362.694 60.1207L359.79 47.672L369.458 39.2962L356.726 38.216L351.75 26.4756L346.774 38.216L334.042 39.2962L343.711 47.672L340.807 60.1207L351.75 53.5157Z" fill="#FFC107"/>
</svg>
