<svg width="45" height="13" viewBox="0 0 45 13" fill="none" xmlns="http://www.w3.org/2000/svg">
<g clip-path="url(#clip0_57_2047)">
<mask id="mask0_57_2047" style="mask-type:luminance" maskUnits="userSpaceOnUse" x="0" y="0" width="45" height="13">
<path d="M44.5714 0H0V13H44.5714V0Z" fill="white"/>
</mask>
<g mask="url(#mask0_57_2047)">
<path d="M44.5442 2.92714C44.5341 2.79091 44.4924 2.65891 44.4226 2.54159C44.2845 2.32217 44.0414 2.23979 43.8978 2.18995C41.3522 1.31434 39.2522 0.755052 37.2874 0.429723C35.3089 0.102318 32.9001 -0.187017 30.0314 0.152847C27.7566 0.420032 25.2794 0.884484 24.3623 2.95759C23.828 2.77151 23.2734 2.64953 22.7104 2.59419C22.3574 2.56524 22.0023 2.57126 21.6504 2.61219C21.2648 2.65022 20.8835 2.72296 20.5109 2.82954C20.4059 2.85999 20.3037 2.8946 20.1981 2.93198C19.2478 0.815265 16.6919 0.330739 14.5297 0.152155C13.5815 0.073937 11.0629 -0.134412 7.28817 0.42903C4.95052 0.77997 2.63221 1.51645 0.673691 2.18995C0.529357 2.23979 0.289024 2.32217 0.148144 2.54159C0.0789732 2.6592 0.0374087 2.79104 0.0265989 2.92714C-0.00527615 3.18764 -0.00851091 3.45086 0.016938 3.71208C0.022249 3.81545 0.0554159 3.91544 0.112923 4.00142C0.194743 4.10525 0.309104 4.1784 0.437514 4.20907C0.984462 4.37589 1.29729 4.54825 1.77449 4.94626C1.97131 5.1103 2.19851 5.52769 2.38221 6.06206C2.43419 6.2113 2.53058 6.34095 2.6584 6.43353C2.78621 6.52612 2.9393 6.57718 3.09698 6.57982L3.36285 6.58397H3.37458C3.49107 6.58338 3.60579 6.55541 3.70953 6.5023C3.77858 8.98172 5.03891 11.1233 7.12311 12.2585C8.03953 12.7569 9.73976 13.0026 11.4545 13.0026C13.2956 13.0026 15.1533 12.7195 16.0759 12.1644C18.29 10.8312 19.2057 9.31051 19.7071 6.12367L19.7464 5.68897C19.7854 5.30466 19.7919 4.91772 19.7658 4.53232C19.9051 4.47912 20.0303 4.39432 20.1315 4.28457C20.2328 4.17482 20.3073 4.04309 20.3493 3.89967C20.7414 3.74582 21.1504 3.63893 21.5675 3.58125C22.0089 3.52462 22.4556 3.5223 22.8976 3.57433C23.3506 3.64756 23.7957 3.76344 24.227 3.92043C24.2519 3.99816 24.2863 4.07254 24.3292 4.14193C24.4414 4.32096 24.6083 4.45886 24.805 4.53509C24.7791 4.92005 24.7858 5.30653 24.825 5.69036L24.8665 6.14097C25.3651 9.31328 26.2801 10.834 28.4928 12.1672C29.4154 12.7209 31.2717 13.0054 33.1121 13.0054C34.8255 13.0054 36.5257 12.7597 37.4407 12.2613C39.5277 11.124 40.7908 8.97687 40.853 6.50022C40.9594 6.55654 41.0779 6.58622 41.1983 6.58674H41.21L41.4759 6.58258C41.6335 6.57994 41.7866 6.52889 41.9144 6.4363C42.0423 6.34372 42.1386 6.21406 42.1906 6.06483C42.3743 5.52977 42.6015 5.11307 42.7983 4.94902C43.2755 4.55101 43.5877 4.37865 44.1353 4.21184C44.2637 4.18117 44.3781 4.10801 44.4599 4.00418C44.5175 3.91801 44.5507 3.81776 44.5559 3.71416C44.5812 3.4522 44.5773 3.18822 44.5442 2.92714ZM19.3058 5.64467L19.2678 6.06621C18.7844 9.12361 17.9557 10.5121 15.848 11.7809C14.1906 12.7777 9.10166 12.8282 7.33444 11.8661C5.33725 10.7786 4.14529 8.69515 4.14529 6.28495C4.12253 5.83166 4.13614 5.37728 4.18603 4.92618C4.45121 3.03927 5.71499 2.34431 9.2964 1.81756C10.6935 1.6099 12.0588 1.6099 14.3301 1.81341C15.7693 1.94146 16.8459 2.21003 17.714 2.65995C18.3411 2.9839 18.685 3.43451 18.8286 4.12186C18.8545 4.24137 18.9161 4.35015 19.0051 4.43374C19.0942 4.51732 19.2065 4.57175 19.3272 4.58978C19.3476 4.94143 19.3404 5.29414 19.3058 5.64467ZM40.4172 6.29395C40.4172 8.69515 39.2252 10.7786 37.2294 11.8661C35.4636 12.8282 30.3746 12.7777 28.7206 11.7816C26.6143 10.5121 25.7843 9.12361 25.305 6.08075L25.2656 5.64398C25.2292 5.29382 25.2202 4.94134 25.2387 4.58978C25.3593 4.57166 25.4716 4.51721 25.5607 4.43364C25.6497 4.35007 25.7113 4.24133 25.7373 4.12186C25.8754 3.44836 26.2207 2.99705 26.8561 2.65788C27.8063 2.14912 29.222 1.91724 30.2399 1.81272C31.9163 1.64405 33.6054 1.64613 35.2813 1.81894C38.5436 2.18857 39.9144 2.85723 40.3108 4.52886C40.4157 5.11095 40.4515 5.70344 40.4172 6.29395Z" fill="#566079"/>
</g>
</g>
<defs>
<clipPath id="clip0_57_2047">
<rect width="45" height="13" fill="white"/>
</clipPath>
</defs>
</svg>
