<svg width="28" height="28" viewBox="0 0 28 28" fill="none" xmlns="http://www.w3.org/2000/svg">
<path d="M11.0819 8.16662C12.0502 8.16662 12.8319 8.94829 12.8319 9.91662C12.8319 10.885 12.0502 11.6666 11.0819 11.6666C10.1135 11.6666 9.33188 10.885 9.33188 9.91662C9.33188 8.94829 10.1135 8.16662 11.0819 8.16662ZM16.9152 16.3333C17.8835 16.3333 18.6652 17.115 18.6652 18.0833C18.6652 19.0516 17.8835 19.8333 16.9152 19.8333C15.9469 19.8333 15.1652 19.0516 15.1652 18.0833C15.1652 17.115 15.9469 16.3333 16.9152 16.3333ZM9.81021 19.8333L8.16521 18.1883L18.1869 8.16662L19.8319 9.81162L9.81021 19.8333ZM21.7569 3.32496L22.4685 7.82829L26.5635 9.91662L24.4985 14L26.5752 18.0833L22.4452 20.1716L21.7335 24.675L17.1952 23.9633L13.9635 27.195L10.7202 23.9166L6.21688 24.6633L5.49354 20.125L1.42188 18.0483L3.49854 13.965L1.43354 9.91662L5.52854 7.80496L6.24021 3.34829L10.7552 4.08329L13.9985 0.810791L17.2185 4.03662L21.7569 3.32496ZM23.4485 10.9316L20.4152 9.33329L19.8319 5.96162L16.4485 6.45162L13.9985 4.08329L11.5485 6.45162L8.16521 5.96162L7.58188 9.33329L4.54854 10.9316L6.06521 14L4.54854 17.0683L7.58188 18.6666L8.16521 22.0383L11.5485 21.5483L13.9985 23.9166L16.4485 21.5483L19.8319 22.0383L20.4152 18.6666L23.4485 17.0683L21.9319 14L23.4485 10.9316Z" fill="white"/>
</svg>
