<svg width="115" height="24" viewBox="0 0 115 24" fill="none" xmlns="http://www.w3.org/2000/svg">
<path d="M10.5489 3.44268C10.8483 2.52137 12.1517 2.52136 12.4511 3.44268L13.8574 7.77095C13.9913 8.18297 14.3752 8.46193 14.8085 8.46193H19.3595C20.3282 8.46193 20.731 9.70154 19.9473 10.2709L16.2654 12.946C15.9149 13.2006 15.7683 13.652 15.9021 14.064L17.3085 18.3923C17.6078 19.3136 16.5533 20.0797 15.7696 19.5103L12.0878 16.8353C11.7373 16.5806 11.2627 16.5806 10.9122 16.8353L7.23037 19.5103C6.44665 20.0797 5.39217 19.3136 5.69153 18.3923L7.09787 14.064C7.23174 13.652 7.08508 13.2006 6.7346 12.946L3.05275 10.2709C2.26904 9.70155 2.67181 8.46193 3.64053 8.46193H8.19155C8.62477 8.46193 9.00873 8.18297 9.1426 7.77095L10.5489 3.44268Z" fill="#F5CA59"/>
<path d="M33.5489 3.44268C33.8483 2.52137 35.1517 2.52136 35.4511 3.44268L36.8574 7.77095C36.9913 8.18297 37.3752 8.46193 37.8085 8.46193H42.3595C43.3282 8.46193 43.731 9.70154 42.9473 10.2709L39.2654 12.946C38.9149 13.2006 38.7683 13.652 38.9021 14.064L40.3085 18.3923C40.6078 19.3136 39.5533 20.0797 38.7696 19.5103L35.0878 16.8353C34.7373 16.5806 34.2627 16.5806 33.9122 16.8353L30.2304 19.5103C29.4467 20.0797 28.3922 19.3136 28.6915 18.3923L30.0979 14.064C30.2317 13.652 30.0851 13.2006 29.7346 12.946L26.0527 10.2709C25.269 9.70155 25.6718 8.46193 26.6405 8.46193H31.1915C31.6248 8.46193 32.0087 8.18297 32.1426 7.77095L33.5489 3.44268Z" fill="#F5CA59"/>
<path d="M56.5489 3.44268C56.8483 2.52137 58.1517 2.52136 58.4511 3.44268L59.8574 7.77095C59.9913 8.18297 60.3752 8.46193 60.8085 8.46193H65.3595C66.3282 8.46193 66.731 9.70154 65.9473 10.2709L62.2654 12.946C61.9149 13.2006 61.7683 13.652 61.9021 14.064L63.3085 18.3923C63.6078 19.3136 62.5533 20.0797 61.7696 19.5103L58.0878 16.8353C57.7373 16.5806 57.2627 16.5806 56.9122 16.8353L53.2304 19.5103C52.4467 20.0797 51.3922 19.3136 51.6915 18.3923L53.0979 14.064C53.2317 13.652 53.0851 13.2006 52.7346 12.946L49.0527 10.2709C48.269 9.70155 48.6718 8.46193 49.6405 8.46193H54.1915C54.6248 8.46193 55.0087 8.18297 55.1426 7.77095L56.5489 3.44268Z" fill="#F5CA59"/>
<path d="M80.0245 3.59718C80.1741 3.13653 80.8259 3.13653 80.9755 3.59718L82.3819 7.92545C82.5827 8.54349 83.1586 8.96193 83.8085 8.96193H88.3595C88.8438 8.96193 89.0452 9.58174 88.6534 9.86644L84.9715 12.5415C84.4458 12.9234 84.2258 13.6005 84.4266 14.2185L85.8329 18.5468C85.9826 19.0074 85.4554 19.3905 85.0635 19.1058L81.3817 16.4308C80.8559 16.0488 80.1441 16.0488 79.6183 16.4308L75.9365 19.1058C75.5446 19.3905 75.0174 19.0074 75.1671 18.5468L76.5734 14.2185C76.7742 13.6005 76.5542 12.9234 76.0285 12.5415L72.3466 9.86644C71.9548 9.58174 72.1562 8.96193 72.6405 8.96193H77.1915C77.8414 8.96193 78.4173 8.54349 78.6181 7.92545L80.0245 3.59718Z" stroke="black" stroke-opacity="0.25"/>
<path d="M103.024 3.59718C103.174 3.13653 103.826 3.13653 103.976 3.59718L105.382 7.92545C105.583 8.54349 106.159 8.96193 106.808 8.96193H111.359C111.844 8.96193 112.045 9.58174 111.653 9.86644L107.972 12.5415C107.446 12.9234 107.226 13.6005 107.427 14.2185L108.833 18.5468C108.983 19.0074 108.455 19.3905 108.064 19.1058L104.382 16.4308C103.856 16.0488 103.144 16.0488 102.618 16.4308L98.9365 19.1058C98.5446 19.3905 98.0174 19.0074 98.1671 18.5468L99.5734 14.2185C99.7742 13.6005 99.5542 12.9234 99.0285 12.5415L95.3466 9.86644C94.9548 9.58174 95.1562 8.96193 95.6405 8.96193H100.192C100.841 8.96193 101.417 8.54349 101.618 7.92545L103.024 3.59718Z" stroke="black" stroke-opacity="0.25"/>
</svg>
