<svg width="41" height="30" viewBox="0 0 41 30" fill="none" xmlns="http://www.w3.org/2000/svg">
<mask id="mask0_54_510" style="mask-type:luminance" maskUnits="userSpaceOnUse" x="0" y="0" width="41" height="30">
<path d="M40.781 0H0V29.453H40.781V0Z" fill="white"/>
</mask>
<g mask="url(#mask0_54_510)">
<path d="M40.781 0H0V29.453H40.781V0Z" fill="white"/>
<path d="M14.9674 29.4529C13.402 29.4529 11.8867 29.2035 10.463 28.7117C9.07956 28.2337 7.77959 27.5258 6.59864 26.608C4.29496 24.8171 2.45524 22.2209 1.27869 19.1006C0.243481 16.3538 -0.184591 13.3767 0.0732037 10.7167C0.202102 9.38768 0.495051 8.17105 0.943992 7.10017C1.41491 5.97657 2.04621 5.0434 2.8196 4.32668C4.0921 3.14777 6.23612 2.17285 9.19271 1.42939C11.8234 0.76797 15.0414 0.313476 18.4989 0.114611C25.5433 -0.290079 32.4675 0.390386 36.5702 1.89012C39.1438 2.83097 40.5412 4.06116 40.7242 5.54624C40.9586 7.44993 40.4639 9.87041 39.2932 12.5464C38.1218 15.2244 36.3908 17.8858 34.2878 20.2425C31.6977 23.1449 28.7448 25.4152 25.5107 26.9904C22.1557 28.6245 18.6084 29.4529 14.9674 29.4529ZM22.4633 1.10015C21.1659 1.10015 19.8582 1.13714 18.5619 1.21148C11.3762 1.6246 5.77033 3.09027 3.56625 5.13276C2.25714 6.34573 1.40502 8.36661 1.16663 10.8229C0.924592 13.3185 1.32959 16.1205 2.30694 18.7127C3.41209 21.6437 5.12914 24.0737 7.27316 25.7404C8.3589 26.5842 9.55267 27.2347 10.8218 27.673C12.1298 28.125 13.5247 28.3539 14.9674 28.3539C18.4403 28.3539 21.8257 27.5628 25.0295 26.0026C28.1344 24.4908 30.9734 22.3066 33.4679 19.5111C35.4947 17.2397 37.1609 14.679 38.2865 12.1062C39.3628 9.6466 39.841 7.3646 39.6334 5.68065C39.5067 4.65263 38.3169 3.69895 36.1923 2.92217C34.2186 2.20068 31.4931 1.66159 28.3109 1.36347C26.4415 1.18841 24.4648 1.10015 22.4633 1.10015Z" fill="#3B4864"/>
</g>
</svg>
